<svg width="72" height="73" viewBox="0 0 72 73" fill="none" xmlns="http://www.w3.org/2000/svg">
<path d="M54.9 18.5361L48 30.5361C51.3 30.5361 54.125 31.7111 56.475 34.0611C58.825 36.4111 60 39.2361 60 42.5361C60 45.8361 58.825 48.6611 56.475 51.0111C54.125 53.3611 51.3 54.5361 48 54.5361C44.7 54.5361 41.875 53.3611 39.525 51.0111C37.175 48.6611 36 45.8361 36 42.5361C36 41.3861 36.1375 40.3236 36.4125 39.3486C36.6875 38.3736 37.1 37.4361 37.65 36.5361L48 18.5361H54.9ZM27.9 18.5361L21 30.5361C24.3 30.5361 27.125 31.7111 29.475 34.0611C31.825 36.4111 33 39.2361 33 42.5361C33 45.8361 31.825 48.6611 29.475 51.0111C27.125 53.3611 24.3 54.5361 21 54.5361C17.7 54.5361 14.875 53.3611 12.525 51.0111C10.175 48.6611 9 45.8361 9 42.5361C9 41.3861 9.1375 40.3236 9.4125 39.3486C9.6875 38.3736 10.1 37.4361 10.65 36.5361L21 18.5361H27.9Z" fill="#1E1E1E" fill-opacity="0.6"/>
</svg>
