<svg width="24" height="25" viewBox="0 0 24 25" fill="none" xmlns="http://www.w3.org/2000/svg">
<path d="M13.028 2.5C14.153 2.503 14.724 2.509 15.217 2.523L15.411 2.53C15.635 2.538 15.856 2.548 16.123 2.56C17.187 2.61 17.913 2.778 18.55 3.025C19.21 3.279 19.766 3.623 20.322 4.178C20.8307 4.67773 21.2242 5.28247 21.475 5.95C21.722 6.587 21.89 7.313 21.94 8.378C21.952 8.644 21.962 8.865 21.97 9.09L21.976 9.284C21.991 9.776 21.997 10.347 21.999 11.472L22 12.218V13.528C22.0025 14.2574 21.9948 14.9868 21.977 15.716L21.971 15.91C21.963 16.135 21.953 16.356 21.941 16.622C21.891 17.687 21.721 18.412 21.475 19.05C21.2242 19.7175 20.8307 20.3223 20.322 20.822C19.8223 21.3307 19.2175 21.7242 18.55 21.975C17.913 22.222 17.187 22.39 16.123 22.44L15.411 22.47L15.217 22.476C14.724 22.49 14.153 22.497 13.028 22.499L12.282 22.5H10.973C10.2433 22.5026 9.51354 22.4949 8.78402 22.477L8.59002 22.471C8.35263 22.462 8.11529 22.4517 7.87802 22.44C6.81402 22.39 6.08802 22.222 5.45002 21.975C4.78285 21.7241 4.17846 21.3306 3.67902 20.822C3.16996 20.3224 2.77613 19.7176 2.52502 19.05C2.27802 18.413 2.11002 17.687 2.06002 16.622L2.03002 15.91L2.02502 15.716C2.00659 14.9868 1.99825 14.2574 2.00002 13.528V11.472C1.99725 10.7426 2.00459 10.0132 2.02202 9.284L2.02902 9.09C2.03702 8.865 2.04702 8.644 2.05902 8.378C2.10902 7.313 2.27702 6.588 2.52402 5.95C2.77571 5.2822 3.17024 4.67744 3.68002 4.178C4.17917 3.66955 4.78321 3.27607 5.45002 3.025C6.08802 2.778 6.81302 2.61 7.87802 2.56C8.14402 2.548 8.36602 2.538 8.59002 2.53L8.78402 2.524C9.51321 2.50623 10.2426 2.49857 10.972 2.501L13.028 2.5ZM12 7.5C10.6739 7.5 9.40217 8.02678 8.46449 8.96447C7.5268 9.90215 7.00002 11.1739 7.00002 12.5C7.00002 13.8261 7.5268 15.0979 8.46449 16.0355C9.40217 16.9732 10.6739 17.5 12 17.5C13.3261 17.5 14.5979 16.9732 15.5356 16.0355C16.4732 15.0979 17 13.8261 17 12.5C17 11.1739 16.4732 9.90215 15.5356 8.96447C14.5979 8.02678 13.3261 7.5 12 7.5ZM12 9.5C12.394 9.49993 12.7841 9.57747 13.1481 9.72817C13.5121 9.87887 13.8429 10.0998 14.1215 10.3783C14.4001 10.6569 14.6211 10.9875 14.772 11.3515C14.9228 11.7154 15.0005 12.1055 15.0005 12.4995C15.0006 12.8935 14.9231 13.2836 14.7723 13.6476C14.6216 14.0116 14.4007 14.3423 14.1222 14.621C13.8437 14.8996 13.513 15.1206 13.149 15.2714C12.7851 15.4223 12.395 15.4999 12.001 15.5C11.2054 15.5 10.4423 15.1839 9.8797 14.6213C9.31709 14.0587 9.00102 13.2956 9.00102 12.5C9.00102 11.7044 9.31709 10.9413 9.8797 10.3787C10.4423 9.81607 11.2054 9.5 12.001 9.5M17.251 6C16.9195 6 16.6016 6.1317 16.3671 6.36612C16.1327 6.60054 16.001 6.91848 16.001 7.25C16.001 7.58152 16.1327 7.89946 16.3671 8.13388C16.6016 8.3683 16.9195 8.5 17.251 8.5C17.5825 8.5 17.9005 8.3683 18.1349 8.13388C18.3693 7.89946 18.501 7.58152 18.501 7.25C18.501 6.91848 18.3693 6.60054 18.1349 6.36612C17.9005 6.1317 17.5825 6 17.251 6Z" fill="#D4AF37"/>
</svg>
