<svg width="24" height="25" viewBox="0 0 24 25" fill="none" xmlns="http://www.w3.org/2000/svg">
<path d="M6.94 5.50002C6.93974 6.03046 6.72877 6.53906 6.35351 6.91394C5.97825 7.28883 5.46944 7.49929 4.939 7.49902C4.40857 7.49876 3.89997 7.28779 3.52508 6.91253C3.1502 6.53727 2.93974 6.02846 2.94 5.49802C2.94027 4.96759 3.15124 4.45899 3.5265 4.0841C3.90176 3.70922 4.41057 3.49876 4.941 3.49902C5.47144 3.49929 5.98004 3.71026 6.35492 4.08552C6.72981 4.46078 6.94027 4.96959 6.94 5.50002ZM7 8.98002H3V21.5H7V8.98002ZM13.32 8.98002H9.34V21.5H13.28V14.93C13.28 11.27 18.05 10.93 18.05 14.93V21.5H22V13.57C22 7.40002 14.94 7.63002 13.28 10.66L13.32 8.98002Z" fill="#D4AF37"/>
</svg>
