<svg width="25" height="24" viewBox="0 0 25 24" fill="none" xmlns="http://www.w3.org/2000/svg">
<path id="Vector" d="M8.69995 0.5C10.9924 0.500075 12.9141 1.28846 14.4958 2.87012C16.0777 4.45196 16.866 6.37428 16.866 8.66699C16.8659 9.59065 16.7199 10.4556 16.4294 11.2646C16.1355 12.0834 15.7391 12.8006 15.2429 13.4209L14.9626 13.7705L23.325 22.1328L22.1658 23.292L13.8035 14.9297L13.4539 15.21C12.8336 15.7061 12.1163 16.1026 11.2976 16.3965C10.4885 16.6869 9.62361 16.833 8.69995 16.833C6.40724 16.833 4.48492 16.0447 2.90308 14.4629C1.32142 12.8812 0.533034 10.9595 0.532959 8.66699C0.532959 6.37428 1.32124 4.45196 2.90308 2.87012C4.48492 1.28828 6.40724 0.5 8.69995 0.5ZM8.69995 2.16699C6.90219 2.16699 5.35794 2.80198 4.09644 4.06348C2.83494 5.32498 2.19995 6.86923 2.19995 8.66699C2.20003 10.4646 2.83501 12.0091 4.09644 13.2705C5.35788 14.5318 6.90234 15.167 8.69995 15.167C10.4976 15.1669 12.042 14.5319 13.3035 13.2705C14.5649 12.0091 15.1999 10.4646 15.2 8.66699C15.2 6.86939 14.5647 5.32492 13.3035 4.06348C12.042 2.80205 10.4976 2.16707 8.69995 2.16699Z" fill="#800000" stroke="black"/>
</svg>
