<svg width="19" height="24" viewBox="0 0 19 24" fill="none" xmlns="http://www.w3.org/2000/svg">
<path d="M2.375 24C1.72187 24 1.16276 23.765 0.697656 23.295C0.232552 22.825 0 22.26 0 21.6V7.2C0 6.54 0.232552 5.975 0.697656 5.505C1.16276 5.035 1.72187 4.8 2.375 4.8H4.75C4.75 3.48 5.2151 2.35 6.14531 1.41C7.07552 0.47 8.19375 0 9.5 0C10.8062 0 11.9245 0.47 12.8547 1.41C13.7849 2.35 14.25 3.48 14.25 4.8H16.625C17.2781 4.8 17.8372 5.035 18.3023 5.505C18.7674 5.975 19 6.54 19 7.2V21.6C19 22.26 18.7674 22.825 18.3023 23.295C17.8372 23.765 17.2781 24 16.625 24H2.375ZM2.375 21.6H16.625V7.2H14.25V9.6C14.25 9.94 14.1362 10.225 13.9086 10.455C13.681 10.685 13.399 10.8 13.0625 10.8C12.726 10.8 12.444 10.685 12.2164 10.455C11.9888 10.225 11.875 9.94 11.875 9.6V7.2H7.125V9.6C7.125 9.94 7.0112 10.225 6.78359 10.455C6.55599 10.685 6.27396 10.8 5.9375 10.8C5.60104 10.8 5.31901 10.685 5.09141 10.455C4.8638 10.225 4.75 9.94 4.75 9.6V7.2H2.375V21.6ZM7.125 4.8H11.875C11.875 4.14 11.6424 3.575 11.1773 3.105C10.7122 2.635 10.1531 2.4 9.5 2.4C8.84687 2.4 8.28776 2.635 7.82266 3.105C7.35755 3.575 7.125 4.14 7.125 4.8Z" fill="#800000"/>
</svg>
